<?xml version="1.0" standalone="no"?>
<!DOCTYPE svg PUBLIC "-//W3C//DTD SVG 20010904//EN"
 "http://www.w3.org/TR/2001/REC-SVG-20010904/DTD/svg10.dtd">
<svg version="1.0" xmlns="http://www.w3.org/2000/svg"
 width="128.000000pt" height="128.000000pt" viewBox="0 0 128.000000 128.000000"
 preserveAspectRatio="xMidYMid meet">

<g transform="translate(0.000000,128.000000) scale(0.100000,-0.100000)"
fill="#000000" stroke="none">
<path d="M828 1263 c-95 -31 -173 -126 -185 -222 l-6 -51 40 0 c65 0 147 63
193 149 17 34 30 141 16 140 -6 0 -32 -7 -58 -16z"/>
<path d="M374 961 c-16 -4 -54 -21 -83 -36 -183 -100 -224 -381 -97 -651 72
-153 162 -257 233 -270 22 -4 61 2 117 20 104 32 129 32 239 0 106 -31 138
-27 195 21 47 41 120 147 159 231 l26 58 -23 15 c-64 43 -119 111 -136 167
-33 113 -4 217 80 291 l45 40 -37 36 c-48 46 -119 78 -193 84 -49 5 -77 0
-157 -26 l-98 -31 -92 30 c-93 30 -122 34 -178 21z"/>
</g>
</svg>
