<svg xmlns="http://www.w3.org/2000/svg" xmlns:xlink="http://www.w3.org/1999/xlink" width="133.5" height="28.082" viewBox="0 0 133.5 28.082">
  <defs>
    <clipPath id="clip-path">
      <path id="Path_3" data-name="Path 3" d="M52.5-32.16a5.971,5.971,0,0,1,2.973.751,5.4,5.4,0,0,1,2.1,2.113,6.378,6.378,0,0,1,.762,3.169,6.378,6.378,0,0,1-.762,3.169,5.4,5.4,0,0,1-2.1,2.113,5.971,5.971,0,0,1-2.973.751,4.506,4.506,0,0,1-3.681-1.525v1.35H45.574v-16.16h3.4v5.684A4.525,4.525,0,0,1,52.5-32.16Zm-.588,9.278a2.83,2.83,0,0,0,2.145-.882,3.288,3.288,0,0,0,.838-2.363,3.288,3.288,0,0,0-.838-2.363,2.83,2.83,0,0,0-2.145-.882,2.83,2.83,0,0,0-2.145.882,3.288,3.288,0,0,0-.838,2.363,3.288,3.288,0,0,0,.838,2.363A2.83,2.83,0,0,0,51.912-22.883Zm14.265,2.788a7.026,7.026,0,0,1-3.321-.773,5.747,5.747,0,0,1-2.3-2.145,5.911,5.911,0,0,1-.828-3.114,5.911,5.911,0,0,1,.828-3.114,5.747,5.747,0,0,1,2.3-2.145,7.026,7.026,0,0,1,3.321-.773,6.961,6.961,0,0,1,3.31.773,5.765,5.765,0,0,1,2.287,2.145,5.911,5.911,0,0,1,.828,3.114,5.911,5.911,0,0,1-.828,3.114,5.765,5.765,0,0,1-2.287,2.145A6.961,6.961,0,0,1,66.177-20.095Zm0-2.788a2.83,2.83,0,0,0,2.145-.882,3.288,3.288,0,0,0,.838-2.363,3.288,3.288,0,0,0-.838-2.363,2.83,2.83,0,0,0-2.145-.882,2.865,2.865,0,0,0-2.156.882,3.263,3.263,0,0,0-.849,2.363,3.263,3.263,0,0,0,.849,2.363A2.865,2.865,0,0,0,66.177-22.883Zm20.581-9.1v11.717H83.513v-1.35a4.48,4.48,0,0,1-3.659,1.525,6.084,6.084,0,0,1-2.995-.74,5.3,5.3,0,0,1-2.1-2.113A6.44,6.44,0,0,1,74-26.128a6.44,6.44,0,0,1,.762-3.18,5.3,5.3,0,0,1,2.1-2.113,6.084,6.084,0,0,1,2.995-.74,4.457,4.457,0,0,1,3.506,1.416v-1.241Zm-6.316,9.1a2.839,2.839,0,0,0,2.134-.882,3.263,3.263,0,0,0,.849-2.363,3.263,3.263,0,0,0-.849-2.363,2.839,2.839,0,0,0-2.134-.882,2.865,2.865,0,0,0-2.156.882,3.263,3.263,0,0,0-.849,2.363,3.263,3.263,0,0,0,.849,2.363A2.865,2.865,0,0,0,80.442-22.883Zm12.7-7.557a3.778,3.778,0,0,1,1.644-1.285,6.1,6.1,0,0,1,2.385-.436v3.136q-.566-.044-.762-.044a3.114,3.114,0,0,0-2.287.817,3.3,3.3,0,0,0-.828,2.45v5.532h-3.4V-31.986h3.245Zm18.076-5.989v16.16h-3.245v-1.35a4.48,4.48,0,0,1-3.659,1.525,6.084,6.084,0,0,1-2.995-.74,5.3,5.3,0,0,1-2.1-2.113,6.44,6.44,0,0,1-.762-3.18,6.44,6.44,0,0,1,.762-3.18,5.3,5.3,0,0,1,2.1-2.113,6.084,6.084,0,0,1,2.995-.74,4.457,4.457,0,0,1,3.506,1.416v-5.684ZM104.9-22.883a2.839,2.839,0,0,0,2.134-.882,3.263,3.263,0,0,0,.849-2.363,3.263,3.263,0,0,0-.849-2.363,2.839,2.839,0,0,0-2.134-.882,2.865,2.865,0,0,0-2.156.882,3.263,3.263,0,0,0-.849,2.363,3.263,3.263,0,0,0,.849,2.363A2.865,2.865,0,0,0,104.9-22.883Zm24.458-9.278a4.723,4.723,0,0,1,3.5,1.3,5.28,5.28,0,0,1,1.3,3.888v6.708h-3.4v-6.185a3.174,3.174,0,0,0-.577-2.08,2.029,2.029,0,0,0-1.644-.686,2.423,2.423,0,0,0-1.895.773,3.332,3.332,0,0,0-.7,2.3v5.88h-3.4v-6.185q0-2.766-2.221-2.766a2.4,2.4,0,0,0-1.873.773,3.332,3.332,0,0,0-.7,2.3v5.88h-3.4V-31.986H117.6v1.35a4.288,4.288,0,0,1,1.6-1.132,5.388,5.388,0,0,1,2.08-.392,5.037,5.037,0,0,1,2.243.49,3.973,3.973,0,0,1,1.612,1.427,4.806,4.806,0,0,1,1.819-1.416A5.737,5.737,0,0,1,129.357-32.16ZM143.1-22.817a4.5,4.5,0,0,0,1.622-.272,3.929,3.929,0,0,0,1.318-.86l1.808,1.96a6.075,6.075,0,0,1-4.835,1.895,7.648,7.648,0,0,1-3.506-.773,5.668,5.668,0,0,1-2.352-2.145,5.911,5.911,0,0,1-.828-3.114,5.987,5.987,0,0,1,.817-3.1,5.722,5.722,0,0,1,2.243-2.156,6.632,6.632,0,0,1,3.212-.773,6.551,6.551,0,0,1,3.049.708,5.447,5.447,0,0,1,2.189,2.047,5.968,5.968,0,0,1,.817,3.169l-8.668,1.677a2.6,2.6,0,0,0,1.165,1.307A4.009,4.009,0,0,0,143.1-22.817Zm-.5-6.773a2.789,2.789,0,0,0-2.091.828,3.288,3.288,0,0,0-.849,2.287l5.706-1.111a2.56,2.56,0,0,0-.98-1.459A2.931,2.931,0,0,0,142.6-29.59Z" transform="translate(-45.574 36.429)" fill="#fff"/>
    </clipPath>
    <clipPath id="clip-path-2">
      <path id="Path_2" data-name="Path 2" d="M-569,364.415H322.78V-235H-569Z" transform="translate(569 235)" fill="#fff"/>
    </clipPath>
    <clipPath id="clip-path-3">
      <path id="Path_6" data-name="Path 6" d="M21.516-17.607l-1.881,2.489a.5.5,0,0,1-.7.1.5.5,0,0,1-.1-.1l-1.882-2.489H1.006A1.006,1.006,0,0,1,0-18.613V-41.994A1.006,1.006,0,0,1,1.006-43H24.387a1.006,1.006,0,0,1,1.006,1.006v23.381a1.006,1.006,0,0,1-1.006,1.006Zm-12.968-5.6a5.962,5.962,0,0,0,.677.337,5.775,5.775,0,0,0,2.27.449,5.926,5.926,0,0,0,2.28-.438,5.577,5.577,0,0,0,1.853-1.234A5.833,5.833,0,0,0,16.877-26a6.37,6.37,0,0,0,.459-2.456,6.244,6.244,0,0,0-.459-2.419,6.035,6.035,0,0,0-1.25-1.917,5.663,5.663,0,0,0-1.853-1.266,5.743,5.743,0,0,0-2.28-.454,4.294,4.294,0,0,0-.812.08,4.754,4.754,0,0,0-.806.23,3.372,3.372,0,0,0-.726.384,2.648,2.648,0,0,0-.571.534v-5.34H8.548v-.1H5.531v16.342H8.548ZM14.4-28.456a3.236,3.236,0,0,1-.23,1.228,3.109,3.109,0,0,1-.625.983,2.935,2.935,0,0,1-.924.657,2.691,2.691,0,0,1-1.127.24,2.691,2.691,0,0,1-1.127-.24,2.935,2.935,0,0,1-.924-.657,3.035,3.035,0,0,1-.619-.983A3.3,3.3,0,0,1,8.6-28.456a3.093,3.093,0,0,1,.224-1.159,3.246,3.246,0,0,1,.619-.993,3.107,3.107,0,0,1,.924-.694,2.506,2.506,0,0,1,1.127-.262,2.743,2.743,0,0,1,1.127.235,2.864,2.864,0,0,1,.924.651,3.1,3.1,0,0,1,.625.988A3.277,3.277,0,0,1,14.4-28.456Zm4.2,6.826a1.508,1.508,0,0,0,1.508-1.508A1.508,1.508,0,0,0,18.6-24.647,1.508,1.508,0,0,0,17.1-23.138,1.508,1.508,0,0,0,18.6-21.63Z" transform="translate(0 43)" fill="#fff"/>
    </clipPath>
  </defs>
  <g id="Group_5" data-name="Group 5" transform="translate(0 43)">
    <g id="Group_2" data-name="Group 2" transform="translate(30.421 -38.614)" clip-path="url(#clip-path)">
      <g id="Group_1" data-name="Group 1" transform="translate(-410.228 -132.546)" clip-path="url(#clip-path-2)">
        <path id="Path_1" data-name="Path 1" d="M40.574-18.42H150.328V-41.429H40.574Z" transform="translate(366.317 170.638)" fill="#fff"/>
      </g>
    </g>
    <g id="Group_4" data-name="Group 4" transform="translate(0 -43)" clip-path="url(#clip-path-3)">
      <g id="Group_3" data-name="Group 3" transform="translate(-379.807 -128.16)" clip-path="url(#clip-path-2)">
        <path id="Path_4" data-name="Path 4" d="M-5-13.243H27.068V-48H-5Z" transform="translate(381.47 172.823)" fill="#fff"/>
      </g>
    </g>
  </g>
</svg>
